<svg width="1031" height="738" viewBox="0 0 1031 738" fill="none" xmlns="http://www.w3.org/2000/svg">
<g clip-path="url(#clip0_16_50)">
<path d="M938.897 256.352V651.981C938.897 678.675 910.015 700.167 874.134 700.167H103.863C67.9889 700.167 39.1011 678.675 39.1011 651.981V256.352C39.1011 229.653 67.9889 208.167 103.863 208.167H874.134C910.015 208.167 938.897 229.653 938.897 256.352Z" fill="#181831"/>
<path d="M895.28 287.916V620.415C895.28 642.849 868.978 660.911 836.311 660.911H141.686C109.019 660.911 82.7234 642.849 82.7234 620.415V287.916C82.7234 265.484 109.019 247.425 141.686 247.425H836.311C868.978 247.425 895.28 265.484 895.28 287.916Z" fill="#0C4D86"/>
<path d="M408.84 13.0431C384.462 13.0431 364.842 33.6866 364.842 59.3288V531.386C364.842 557.031 384.462 577.677 408.84 577.677H851.745C876.123 577.677 895.75 557.031 895.75 531.386V59.3288C895.75 57.845 895.678 56.3805 895.551 54.9296L949.56 26.6594L927.146 12.6626L408.84 13.0431Z" fill="#0C4D86"/>
<path d="M933.868 10.96C913.431 10.96 896.856 29.679 896.856 52.7698C896.866 53.1147 896.872 53.4569 896.887 53.8073H970.843C970.858 53.4569 970.874 53.1147 970.88 52.7698C970.88 29.679 954.309 10.96 933.868 10.96Z" fill="#F8F8FF"/>
<path d="M464.574 402.77L731.224 402.94C734.652 402.942 737.598 406.425 737.828 410.742C738.068 415.059 735.488 418.527 732.06 418.524L465.407 418.357C461.988 418.355 459.035 414.873 458.805 410.555C458.572 406.236 461.143 402.77 464.574 402.77Z" fill="#F8F8FF"/>
<path d="M464.993 362.901L799.377 363.32C802.799 363.323 805.752 366.802 805.981 371.122C806.211 375.439 803.641 378.907 800.213 378.905L465.83 378.486C462.402 378.48 459.458 375.001 459.225 370.684C458.995 366.367 461.565 362.896 464.993 362.901Z" fill="#181831"/>
<path d="M464.993 211.879L799.377 212.295C802.799 212.3 805.752 215.782 805.981 220.1C806.211 224.417 803.641 227.888 800.213 227.879L465.83 227.466C462.402 227.458 459.458 223.976 459.225 219.659C458.995 215.342 461.565 211.873 464.993 211.879Z" fill="#181831"/>
<path d="M464.993 287.39L799.377 287.806C802.799 287.811 805.752 291.294 805.981 295.611C806.211 299.928 803.641 303.399 800.213 303.391L465.83 302.977C462.402 302.969 459.458 299.487 459.225 295.17C458.995 290.853 461.565 287.384 464.993 287.39Z" fill="#181831"/>
<path d="M464.993 100.572L799.377 100.994C802.799 100.994 805.752 104.476 805.981 108.793C806.211 113.11 803.641 116.578 800.213 116.578L465.83 116.157C462.402 116.151 459.458 112.675 459.225 108.357C458.995 104.04 461.565 100.564 464.993 100.572Z" fill="#F8F8FF"/>
<path d="M268.612 95.617C244.315 95.617 224.757 116.192 224.757 141.758V612.26C224.757 637.82 244.315 658.395 268.612 658.395H710.06C734.36 658.395 753.915 637.82 753.915 612.26V141.758C753.915 140.271 753.853 138.815 753.725 137.372L807.548 109.192L785.215 95.2393L268.612 95.617Z" fill="white"/>
<path d="M791.915 93.542C771.54 93.542 755.021 112.206 755.021 135.22C755.031 135.563 755.037 135.908 755.053 136.25H828.759C828.784 135.908 828.8 135.563 828.806 135.22C828.806 112.206 812.291 93.542 791.915 93.542Z" fill="white"/>
<path d="M324.163 479.067L589.94 479.234C593.352 479.237 596.286 482.708 596.519 487.011C596.755 491.312 594.188 494.769 590.773 494.769L324.999 494.599C321.583 494.599 318.649 491.128 318.41 486.825C318.18 482.522 320.75 479.064 324.163 479.067Z" fill="#0C4D86"/>
<path d="M324.582 321.458L657.86 321.877C661.281 321.885 664.218 325.351 664.448 329.654C664.678 333.955 662.117 337.415 658.696 337.41L325.418 336.993C321.996 336.988 319.063 333.52 318.833 329.216C318.599 324.913 321.163 321.458 324.582 321.458Z" fill="#0C4D86"/>
<path d="M324.582 400.186L657.86 400.605C661.281 400.607 664.218 404.076 664.448 408.379C664.678 412.683 662.117 416.143 658.696 416.137L325.418 415.718C321.996 415.716 319.063 412.247 318.833 407.944C318.599 403.641 321.163 400.18 324.582 400.186Z" fill="#0C4D86"/>
<path d="M416.588 185.027C414.655 203.85 421.355 222.61 435.198 237.187C449.044 251.761 468.909 260.957 490.416 262.752C535.2 266.478 574.767 237.732 578.776 198.536C582.795 159.341 549.736 124.547 504.951 120.819C483.436 119.023 462.044 124.785 445.479 136.825C428.905 148.864 418.515 166.209 416.588 185.027Z" fill="#51E74C"/>
<path d="M549.727 152.858C547.666 152.908 545.712 153.671 544.269 154.974L478.575 212.84L451.111 174.821C449.616 173.469 447.555 172.705 445.408 172.705C438.278 172.705 434.76 180.343 439.869 184.723L470.659 227.332C470.668 227.34 470.675 227.346 470.684 227.354C471.964 229.196 474.128 230.423 476.564 230.669C479.004 230.907 481.431 230.149 483.144 228.608L555.504 164.87C557.86 162.858 558.56 159.781 557.285 157.126C556.005 154.462 553.006 152.773 549.727 152.858Z" fill="white"/>
<path d="M560.604 615.074C581.219 587.658 601.834 560.242 604.879 543.527C607.935 526.815 593.414 520.8 583.789 523.614C574.155 526.429 569.412 538.068 572.038 554.784C574.661 571.496 584.663 593.284 592.031 605.225C599.397 617.163 604.14 619.252 610.753 616.492C617.355 613.73 625.83 606.12 632.521 606.043C639.212 605.969 644.129 613.432 648.959 615.895C653.788 618.356 658.528 615.819 663.27 613.281" stroke="#214478" stroke-width="7.59122" stroke-linecap="round"/>
<path d="M182.757 449.633L185.312 735.461C185.383 743.093 171.19 749.138 153.487 749.02C135.785 748.897 121.463 742.658 121.398 735.026L118.844 449.201C118.772 441.569 132.966 435.521 150.668 435.642C168.38 435.762 182.692 442.001 182.757 449.633Z" fill="#51E74C"/>
<path d="M184.777 737.638L120.062 738.201L152.492 794.213L184.777 737.638Z" fill="white"/>
</g>
<defs>
<clipPath id="clip0_16_50">
<rect width="4177" height="1314" fill="white" transform="translate(-1602 -291)"/>
</clipPath>
</defs>
</svg>
