<svg width="1070" height="776" viewBox="0 0 1070 776" fill="none" xmlns="http://www.w3.org/2000/svg">
<g clip-path="url(#clip0_17_132)">
<path d="M-240.266 -351.296H1301.27V1127.3H-240.266V-351.296Z" stroke="#FEFEFE" stroke-width="0.50003" stroke-miterlimit="22.9256"/>
<path fill-rule="evenodd" clip-rule="evenodd" d="M377.78 658.564L380.175 656.696L379.822 655.225C379.793 651.605 379.303 657.857 379.819 653.635L407.014 562.497C409.813 553.602 415.264 538.86 416.141 530.639L410.971 529.52C405.993 526.071 349.794 466.779 345.611 460.83L170.7 460.868L108.494 557.664C110.705 561.933 180.633 622.57 183.251 624.627C187.977 628.337 191.105 632.094 195.865 635.791L220.886 658.234C227.736 663.842 226.455 664.24 238.515 664.133L359.747 664.152C371.61 664.202 369.101 662.494 377.78 658.564Z" fill="#51E74C"/>
<path fill-rule="evenodd" clip-rule="evenodd" d="M370.119 688.32L347.311 762.002C345.743 768.663 345.926 764.037 347.291 766.782L717.026 664.609L713.737 559.903V559.144C695.612 556.099 675.44 555.345 656.524 553.236C646.723 552.141 637.349 551.297 627.594 550.483C612.107 549.193 615.594 547.57 603.746 554.641L526.104 599.868C500.205 614.316 474.043 630.078 448.511 645.164C437.46 651.696 377.654 688.056 370.119 688.32Z" fill="#0C4D86"/>
<path fill-rule="evenodd" clip-rule="evenodd" d="M422.73 506.598L424.17 506.601C425.862 498.209 433.257 471.515 436.603 464.135C438.527 459.891 439.462 460.975 444.314 458.813L527.724 415.735C534.311 411.903 541.935 409.7 545.878 404.442L537.6 382.648C530.626 384.295 500.63 401.433 491.824 405.426L448.85 427.759C444.279 430.476 448.359 427.327 447.84 428.689L475.259 335.039C477.593 327.421 476.294 326.857 480.354 323.124C472.684 321.969 410.896 283.646 399.12 276.985C385.606 269.339 372.717 261.494 359.346 253.532L318.212 229.973C314.769 238.226 261.257 316.499 254.725 329.912C260.104 337.074 266.214 341.874 272.127 348.824C275.195 352.421 278.498 354.963 281.527 358.387L346.17 426.535C356.045 438.147 354.093 436.758 374.225 436.75L432.222 436.599C437.025 435.908 440.781 432.286 446.421 430.57C445.833 437.099 442.306 446.373 440.334 453.423C439.502 456.388 439.069 459.952 436.009 460.73L379.871 460.799C380.149 462.999 381.649 463.698 383.713 465.975L422.73 506.598Z" fill="#22415C"/>
<path fill-rule="evenodd" clip-rule="evenodd" d="M711.306 490.665C707.834 494.436 700.995 497.288 696.774 499.816C691.26 503.116 685.697 506.221 680.94 508.975C670.339 515.111 660.283 521.197 649.969 526.775C651.95 528.692 653.031 529.209 657.169 529.685L681.175 531.514C691.796 532.388 702.93 534.289 713.333 534.506C721.855 535.705 780.669 557.689 793.426 562.323C810.817 568.644 1025.43 645.75 1034.38 647.394L978.754 478.135L724.41 486.188C716.909 486.79 718.142 489.769 711.306 490.665Z" fill="#0C4D86"/>
<path fill-rule="evenodd" clip-rule="evenodd" d="M717.026 664.609L1069.86 755.659L1044.93 678.955C1042.64 674.972 1027.96 671.306 1020.54 668.613C986.264 656.168 952.916 644.68 918.937 632.328C885.302 620.1 850.83 608.436 817.246 596.351C799.783 590.069 725.159 562.604 713.738 559.903L717.026 664.609Z" fill="#51E74C"/>
<path fill-rule="evenodd" clip-rule="evenodd" d="M584.812 384.936C580.218 394.513 575.923 410.616 572.723 421.565C570.463 429.31 565.947 456.674 562.807 461.093L562.724 466.721C559.82 458.459 557.603 444.575 555.048 435.372C552.164 424.954 548.235 414.571 545.878 404.441C541.935 409.7 534.311 411.903 527.724 415.734L444.314 458.813C439.462 460.975 438.527 459.891 436.603 464.135C433.257 471.514 425.862 498.209 424.17 506.601C433.397 509.733 492.048 513.548 506.144 514.805C533.921 517.28 562.257 520.394 589.936 522.748C613.831 524.778 607.069 524.002 624.512 514.252C634.465 508.688 643.339 503.377 653.352 497.75C658.316 494.961 662.307 492.112 667.563 489.238C672.593 486.493 677.121 483.553 681.858 480.879C691.509 475.436 701.061 470.104 710.77 463.959L710.853 463.668L707.607 371.743L707.55 371.25C697.706 369.35 683.228 363.56 673.562 360.067C650.035 351.571 651.827 349.748 642.035 355.507L584.812 384.936Z" fill="#082239"/>
<path fill-rule="evenodd" clip-rule="evenodd" d="M-8.86133 676.188L313.349 772.36L210.517 680.999C192.074 666.812 153.292 629.011 135.74 615.603C126.407 608.474 82.0764 567.238 76.2756 563.721C77.3825 557.829 118.344 497.794 125.53 484.728C114.392 498.292 102.326 516.623 91.7999 531.946L16.1312 639.509C11.1103 646.677 -7.56812 671.053 -8.86133 676.188Z" fill="#181831"/>
<path fill-rule="evenodd" clip-rule="evenodd" d="M406.633 776.364C429.83 776.911 461.544 772.709 485.653 771.257L639.273 760.737C664.326 759.218 691.099 756.146 715.808 755.58C739.765 755.03 770.097 757.832 794.602 759.133C820.417 760.503 846.425 761.669 872.375 762.764C896.731 763.789 1015.82 771.177 1028.95 769.576C1025.15 769.739 960.44 752.194 950.694 749.578C918.358 740.909 720.029 689.084 715.375 689.777L415.814 773.011C414.475 773.369 412.367 773.823 411.126 774.238L407.51 775.85C407.355 775.594 406.911 776.172 406.633 776.364Z" fill="#181831"/>
<path fill-rule="evenodd" clip-rule="evenodd" d="M706.388 321.887C697.537 325.151 687.457 332.066 679.36 335.496C682.305 338.777 681.123 337.666 685.857 339.115L707.564 346.241L954.986 407.995L918.423 295.074C904.359 290.687 878.254 287.131 862.738 284.155C839.408 279.674 839.4 283.393 809.401 291.765C791.901 296.644 717.164 316.9 706.388 321.887Z" fill="#51E74C"/>
<path fill-rule="evenodd" clip-rule="evenodd" d="M424.17 506.601L422.73 506.598C423.094 514.918 418.38 521.967 417.173 530.119L410.971 529.52L416.141 530.639L570.661 545.065C567.028 548.816 531.916 567.956 523.615 573.135L380.175 656.696L377.78 658.564L370.119 688.32C377.654 688.056 437.46 651.696 448.511 645.164C474.043 630.078 500.205 614.316 526.104 599.868L603.746 554.641C615.594 547.57 612.107 549.193 627.594 550.483C637.349 551.297 646.723 552.141 656.524 553.236C675.44 555.346 695.612 556.099 713.737 559.144L713.333 534.506C702.93 534.289 691.796 532.388 681.175 531.514L657.169 529.685C653.031 529.209 651.95 528.692 649.969 526.775C660.283 521.197 670.339 515.111 680.94 508.975C685.697 506.221 691.26 503.116 696.774 499.816C700.995 497.288 707.833 494.436 711.306 490.665L710.77 463.959C701.061 470.104 691.509 475.437 681.857 480.88C677.12 483.553 672.593 486.493 667.563 489.238C662.307 492.112 658.316 494.961 653.352 497.75C643.339 503.378 634.464 508.689 624.512 514.252C607.069 524.003 613.83 524.778 589.936 522.748C562.257 520.394 533.921 517.281 506.144 514.805C492.048 513.548 433.397 509.734 424.17 506.601Z" fill="#CBCBCB"/>
<path fill-rule="evenodd" clip-rule="evenodd" d="M710.853 463.668C719.014 461.063 944.27 454.605 970.585 454.49L964.675 435.796C963.912 435.771 963.502 435.246 963.362 435.482L957.056 433.172C896.496 417.649 833.16 403.306 773.093 387.593C753.575 382.488 727.148 375.038 707.607 371.743L710.853 463.668Z" fill="#181831"/>
<path fill-rule="evenodd" clip-rule="evenodd" d="M380.175 656.696L523.615 573.135C531.917 567.956 567.028 548.816 570.661 545.065L416.141 530.639C415.264 538.86 409.813 553.602 407.014 562.497L379.819 653.635C379.303 657.857 379.794 651.605 379.822 655.225L380.175 656.696Z" fill="#3CAC39"/>
<path fill-rule="evenodd" clip-rule="evenodd" d="M186.371 436.841L321.192 436.879C318.336 431.368 305.051 419.72 301.174 415.116C294.723 407.44 243.361 353.577 240.021 352.069L186.371 436.841Z" fill="#181831"/>
<path fill-rule="evenodd" clip-rule="evenodd" d="M636.652 274.275L615.525 313.993C654.109 327.665 643.488 326.582 661.972 317.717C669.275 314.219 676.358 310.346 683.162 306.641C691.033 302.354 698.093 299.735 705.654 295.58L792.758 271.148C766.845 264.91 739.031 261.046 712.482 255.589C698.291 252.666 692.186 257.644 673.981 262.996C661.436 266.684 649.324 271.382 636.652 274.275Z" fill="#6CA1AC"/>
<path fill-rule="evenodd" clip-rule="evenodd" d="M480.354 323.125C476.294 326.857 477.593 327.421 475.259 335.039L447.841 428.689C448.36 427.327 444.279 430.476 448.85 427.759L491.824 405.426C500.63 401.433 530.626 384.295 537.6 382.648C535.074 372.447 528.246 358.062 523.879 347.894C518.976 336.489 513.207 325.196 508.676 314.161L480.354 323.125Z" fill="#011221"/>
<path fill-rule="evenodd" clip-rule="evenodd" d="M615.525 313.993C609.03 324.357 604.574 337.404 599.605 348.43C594.914 358.835 587.404 374.229 584.812 384.936L642.035 355.507C651.827 349.748 650.035 351.571 673.562 360.067C683.228 363.56 697.706 369.35 707.55 371.25L707.564 346.241L685.857 339.115C681.123 337.666 682.305 338.777 679.36 335.496C687.458 332.066 697.537 325.151 706.388 321.887L705.654 295.58C698.093 299.735 691.033 302.354 683.162 306.642C676.358 310.346 669.275 314.219 661.972 317.717C643.488 326.582 654.109 327.665 615.525 313.993Z" fill="#CBCBCB"/>
<path fill-rule="evenodd" clip-rule="evenodd" d="M347.291 766.782C345.926 764.037 345.743 768.663 347.311 762.002L370.119 688.32L256.718 688.116C257.609 690.256 257.113 689.087 258.596 690.721C259.218 691.408 260.56 692.635 261.566 693.614L278.536 708.637C285.55 715.361 294.487 722.091 301.581 728.456L323.996 748.726C326.198 750.533 327.942 751.647 330.032 753.495C332.558 755.725 343.555 768.394 347.291 766.782Z" fill="#0C4D86"/>
<path fill-rule="evenodd" clip-rule="evenodd" d="M551.091 102.301C659.652 85.8405 682.311 238.76 578.289 257.554C469.576 277.191 443.826 118.559 551.091 102.301ZM533.216 1.9904C414.561 20.162 339.727 145.405 393.947 258.087C403.111 277.128 503.919 411.912 528.556 443.098C536.57 453.244 542.899 463.696 551.868 473.514C567.863 491.015 575.043 475.423 583.507 463.929L719.911 280.681C735.304 260.384 746.051 232.803 750.395 203.957C755.072 172.95 749.142 143.653 738.988 115.77C734.908 104.562 726.655 89.416 720.496 80.7634C716.166 74.6713 713.009 71.778 708.986 66.7173C704.003 60.4355 702.374 56.662 696.427 50.9935C691.099 45.9108 674.64 34.0733 665.229 28.061C654.732 21.3529 642.238 15.2609 628.644 10.4175C598.504 -0.33365 565.486 -2.94649 533.216 1.9904Z" fill="#181831"/>
<path fill-rule="evenodd" clip-rule="evenodd" d="M738.988 115.769C734.908 104.562 726.655 89.4155 720.496 80.7629C716.166 74.6709 713.009 71.7775 708.986 66.7169C704.003 60.435 702.374 56.6615 696.427 50.9876C691.099 45.9104 674.64 34.0729 665.229 28.0606C654.732 21.3525 642.238 15.2604 628.644 10.417C608.104 3.08734 586.231 -0.460616 564.158 -0.41111V101.105C661.309 98.302 677.995 239.541 578.289 257.553C573.414 258.433 568.7 258.953 564.158 259.143V481.333C572.29 482.026 577.583 471.974 583.507 463.929L663.601 356.329L705.766 299.678L709.654 294.46L719.911 280.681C724.763 274.289 729.144 267.171 733.021 259.525C741.44 242.88 747.416 223.715 750.395 203.957C755.072 172.949 749.142 143.653 738.988 115.769Z" fill="#0C4D86"/>
</g>
<defs>
<clipPath id="clip0_17_132">
<rect width="1543" height="1480" fill="white" transform="translate(-241 -352)"/>
</clipPath>
</defs>
</svg>
