<svg width="943" height="853" viewBox="0 0 943 853" fill="none" xmlns="http://www.w3.org/2000/svg">
<path fill-rule="evenodd" clip-rule="evenodd" d="M872.908 658.58C863.632 658.58 856.091 650.965 856.091 641.575V446.84C856.091 437.45 863.632 429.832 872.908 429.832C882.189 429.832 889.744 437.45 889.744 446.84V641.575C889.744 650.977 882.204 658.58 872.908 658.58Z" fill="#0C4D86"/>
<path fill-rule="evenodd" clip-rule="evenodd" d="M175.544 667.922V514.012C175.544 508.424 178.258 503.186 182.82 500.016C187.352 496.832 193.156 496.122 198.338 498.101L444.84 592.366L691.354 498.089C696.511 496.115 702.311 496.808 706.872 500.004C711.426 503.179 714.141 508.4 714.141 514V667.902C613.117 714.112 276.974 714.503 175.544 667.922ZM444.84 852.676C417.275 852.676 175.544 850.673 175.544 781.54V763.949C312.952 808.204 576.985 808.11 714.141 763.949V781.532C714.153 850.673 472.405 852.676 444.84 852.676Z" fill="#181831"/>
<path fill-rule="evenodd" clip-rule="evenodd" d="M175.544 550.004V514.012C175.544 508.424 178.258 503.186 182.82 500.016C187.352 496.832 193.156 496.122 198.338 498.101L444.84 592.366L691.354 498.089C696.511 496.115 702.311 496.808 706.872 500.004C711.426 503.179 714.141 508.4 714.141 514V550.011L458.745 647.686C454.306 649.385 449.586 650.25 444.84 650.25C440.101 650.25 435.39 649.385 430.947 647.686L175.544 550.004Z" fill="#0C4D86"/>
<path fill-rule="evenodd" clip-rule="evenodd" d="M175.544 763.949V667.922C276.974 714.503 613.117 714.112 714.141 667.902V763.949C576.985 808.11 312.952 808.204 175.544 763.949Z" fill="#51E74C"/>
<path fill-rule="evenodd" clip-rule="evenodd" d="M444.84 627.567C442.82 627.567 440.808 627.2 438.886 626.466L10.8277 462.751C4.28268 460.25 -0.0429688 453.913 -0.0429688 446.84C-0.0429688 439.764 4.2947 433.435 10.8277 430.929L257.51 336.589C264.952 333.749 273.343 336.557 277.633 343.307C314.388 401.209 376.909 435.768 444.871 435.768C512.814 435.768 575.34 401.209 612.102 343.307C616.387 336.557 624.776 333.732 632.218 336.589L878.891 430.929C885.44 433.435 889.768 439.764 889.768 446.84C889.768 453.913 885.428 460.25 878.891 462.751L450.805 626.466C448.884 627.2 446.864 627.567 444.84 627.567Z" fill="#181831"/>
<path fill-rule="evenodd" clip-rule="evenodd" d="M217.894 351.746L257.51 336.589C264.951 333.749 273.343 336.557 277.633 343.307C314.387 401.209 376.909 435.768 444.871 435.768C512.814 435.768 575.34 401.209 612.102 343.307C616.387 336.557 624.776 333.732 632.218 336.589L671.791 351.727C629.638 435.19 543.738 492.469 444.84 492.469C345.953 492.469 260.058 435.197 217.894 351.746Z" fill="#0C4D86"/>
<path fill-rule="evenodd" clip-rule="evenodd" d="M444.84 469.788C316.811 469.788 212.63 364.478 212.63 235.049C212.63 105.619 316.811 0.301758 444.84 0.301758C572.873 0.301758 677.054 105.612 677.054 235.041C677.054 364.478 572.892 469.788 444.84 469.788Z" fill="#51E74C"/>
<path fill-rule="evenodd" clip-rule="evenodd" d="M900.194 784.943H845.019C821.775 784.943 802.854 765.815 802.854 742.318V641.58C802.854 632.198 810.394 624.575 819.671 624.575H926.16C935.453 624.575 942.982 632.198 942.982 641.58V741.683C942.994 765.541 923.789 784.943 900.194 784.943Z" fill="#65F760"/>
<path fill-rule="evenodd" clip-rule="evenodd" d="M444.84 406.605C351.265 406.605 275.135 329.644 275.135 235.041C275.135 140.446 351.265 63.4852 444.84 63.4852C538.415 63.4852 614.557 140.446 614.557 235.049C614.557 329.649 538.434 406.605 444.84 406.605Z" fill="#65F760"/>
<path fill-rule="evenodd" clip-rule="evenodd" d="M444.84 326.62C415.226 326.62 391.134 302.257 391.134 272.321C391.134 262.931 398.667 255.313 407.955 255.313C417.239 255.313 424.784 262.931 424.784 272.321C424.784 283.509 433.784 292.6 444.84 292.6C455.9 292.6 464.9 283.509 464.9 272.321C464.9 258.551 460.979 256.397 440.942 251.58C422.317 247.095 391.134 239.589 391.134 197.737C391.134 167.801 415.226 143.445 444.84 143.445C474.461 143.445 498.551 167.801 498.551 197.737C498.551 207.127 491.018 214.75 481.729 214.75C472.441 214.75 464.9 207.127 464.9 197.737C464.9 186.554 455.908 177.463 444.84 177.463C433.779 177.463 424.784 186.568 424.784 197.737C424.784 211.515 428.706 213.666 448.742 218.483C467.37 222.971 498.551 230.474 498.551 272.321C498.551 302.27 474.461 326.62 444.84 326.62Z" fill="#181831"/>
<path fill-rule="evenodd" clip-rule="evenodd" d="M444.84 177.475C435.556 177.475 428.016 169.853 428.016 160.47V140.662C428.016 131.268 435.556 123.65 444.84 123.65C454.128 123.65 461.669 131.268 461.669 140.662V160.47C461.669 169.872 454.14 177.475 444.84 177.475Z" fill="#181831"/>
<path fill-rule="evenodd" clip-rule="evenodd" d="M444.84 346.426C435.556 346.426 428.016 338.803 428.016 329.42V309.625C428.016 300.23 435.556 292.62 444.84 292.62C454.128 292.62 461.669 300.23 461.669 309.625V329.433C461.669 338.822 454.14 346.426 444.84 346.426Z" fill="#181831"/>
</svg>
